<svg width="125" height="90" viewBox="0 0 125 90" fill="none" xmlns="http://www.w3.org/2000/svg">
<rect x="45.25" y="0.25" width="4.5" height="4.5" stroke="black" stroke-width="0.5"/>
<rect x="50.25" y="0.25" width="4.5" height="4.5" stroke="black" stroke-width="0.5"/>
<rect x="55.25" y="0.25" width="4.5" height="4.5" stroke="black" stroke-width="0.5"/>
<rect x="60.25" y="0.25" width="4.5" height="4.5" stroke="black" stroke-width="0.5"/>
<rect x="65.25" y="0.25" width="4.5" height="4.5" stroke="black" stroke-width="0.5"/>
<rect x="45.25" y="5.25" width="4.5" height="4.5" stroke="black" stroke-width="0.5"/>
<rect x="50.25" y="5.25" width="4.5" height="4.5" stroke="black" stroke-width="0.5"/>
<rect x="55.25" y="5.25" width="4.5" height="4.5" stroke="black" stroke-width="0.5"/>
<rect x="60.25" y="5.25" width="4.5" height="4.5" stroke="black" stroke-width="0.5"/>
<rect x="65.25" y="5.25" width="4.5" height="4.5" stroke="black" stroke-width="0.5"/>
<rect x="45.25" y="10.25" width="4.5" height="4.5" fill="#040404" stroke="black" stroke-width="0.5"/>
<rect x="50.25" y="10.25" width="4.5" height="4.5" stroke="black" stroke-width="0.5"/>
<rect x="55.25" y="10.25" width="4.5" height="4.5" stroke="black" stroke-width="0.5"/>
<rect x="60.25" y="10.25" width="4.5" height="4.5" stroke="black" stroke-width="0.5"/>
<rect x="65.25" y="10.25" width="4.5" height="4.5" stroke="black" stroke-width="0.5"/>
<rect x="45.25" y="0.25" width="4.5" height="4.5" stroke="black" stroke-width="0.5"/>
<rect x="45.25" y="20.25" width="4.5" height="4.5" stroke="black" stroke-width="0.5"/>
<rect x="50.25" y="20.25" width="4.5" height="4.5" stroke="black" stroke-width="0.5"/>
<rect x="55.25" y="20.25" width="4.5" height="4.5" stroke="black" stroke-width="0.5"/>
<rect x="60.25" y="20.25" width="4.5" height="4.5" fill="#040404" stroke="black" stroke-width="0.5"/>
<rect x="65.25" y="20.25" width="4.5" height="4.5" fill="#040404" stroke="black" stroke-width="0.5"/>
<rect x="45.25" y="20.25" width="4.5" height="4.5" stroke="black" stroke-width="0.5"/>
<rect x="45.25" y="15.25" width="4.5" height="4.5" stroke="black" stroke-width="0.5"/>
<rect x="50.25" y="15.25" width="4.5" height="4.5" stroke="black" stroke-width="0.5"/>
<rect x="55.25" y="15.25" width="4.5" height="4.5" stroke="black" stroke-width="0.5"/>
<rect x="60.25" y="15.25" width="4.5" height="4.5" stroke="black" stroke-width="0.5"/>
<rect x="65.25" y="15.25" width="4.5" height="4.5" stroke="black" stroke-width="0.5"/>
<rect x="70.25" y="0.25" width="4.5" height="4.5" stroke="black" stroke-width="0.5"/>
<rect x="75.25" y="0.25" width="4.5" height="4.5" stroke="black" stroke-width="0.5"/>
<rect x="80.25" y="0.25" width="4.5" height="4.5" stroke="black" stroke-width="0.5"/>
<rect x="70.25" y="5.25" width="4.5" height="4.5" stroke="black" stroke-width="0.5"/>
<rect x="75.25" y="5.25" width="4.5" height="4.5" stroke="black" stroke-width="0.5"/>
<rect x="80.25" y="5.25" width="4.5" height="4.5" stroke="black" stroke-width="0.5"/>
<rect x="70.25" y="10.25" width="4.5" height="4.5" stroke="black" stroke-width="0.5"/>
<rect x="75.25" y="10.25" width="4.5" height="4.5" stroke="black" stroke-width="0.5"/>
<rect x="80.25" y="10.25" width="4.5" height="4.5" stroke="black" stroke-width="0.5"/>
<rect x="70.25" y="20.25" width="4.5" height="4.5" fill="#040404" stroke="black" stroke-width="0.5"/>
<rect x="75.25" y="20.25" width="4.5" height="4.5" fill="#040404" stroke="black" stroke-width="0.5"/>
<rect x="80.25" y="20.25" width="4.5" height="4.5" fill="#040404" stroke="black" stroke-width="0.5"/>
<rect x="70.25" y="15.25" width="4.5" height="4.5" stroke="black" stroke-width="0.5"/>
<rect x="75.25" y="15.25" width="4.5" height="4.5" stroke="black" stroke-width="0.5"/>
<rect x="80.25" y="15.25" width="4.5" height="4.5" stroke="black" stroke-width="0.5"/>
<rect x="45.25" y="15.25" width="4.5" height="4.5" stroke="black" stroke-width="0.5"/>
<rect x="45.25" y="25.25" width="4.5" height="4.5" stroke="black" stroke-width="0.5"/>
<rect x="50.25" y="25.25" width="4.5" height="4.5" fill="#040404" stroke="black" stroke-width="0.5"/>
<rect x="55.25" y="25.25" width="4.5" height="4.5" fill="#040404" stroke="black" stroke-width="0.5"/>
<rect x="60.25" y="25.25" width="4.5" height="4.5" fill="#040404" stroke="black" stroke-width="0.5"/>
<rect x="65.25" y="25.25" width="4.5" height="4.5" fill="#040404" stroke="black" stroke-width="0.5"/>
<rect x="45.25" y="35.25" width="4.5" height="4.5" stroke="black" stroke-width="0.5"/>
<rect x="50.25" y="35.25" width="4.5" height="4.5" fill="#040404" stroke="black" stroke-width="0.5"/>
<rect x="55.25" y="35.25" width="4.5" height="4.5" fill="#040404" stroke="black" stroke-width="0.5"/>
<rect x="60.25" y="35.25" width="4.5" height="4.5" fill="#040404" stroke="black" stroke-width="0.5"/>
<rect x="65.25" y="35.25" width="4.5" height="4.5" fill="#040404" stroke="black" stroke-width="0.5"/>
<rect x="45.25" y="35.25" width="4.5" height="4.5" fill="#040404" stroke="black" stroke-width="0.5"/>
<rect x="45.25" y="30.25" width="4.5" height="4.5" stroke="black" stroke-width="0.5"/>
<rect x="50.25" y="30.25" width="4.5" height="4.5" fill="#040404" stroke="black" stroke-width="0.5"/>
<rect x="55.25" y="30.25" width="4.5" height="4.5" fill="#040404" stroke="black" stroke-width="0.5"/>
<rect x="60.25" y="30.25" width="4.5" height="4.5" fill="#040404" stroke="black" stroke-width="0.5"/>
<rect x="65.25" y="30.25" width="4.5" height="4.5" fill="#040404" stroke="black" stroke-width="0.5"/>
<rect x="70.25" y="25.25" width="4.5" height="4.5" fill="#040404" stroke="black" stroke-width="0.5"/>
<rect x="75.25" y="25.25" width="4.5" height="4.5" fill="#040404" stroke="black" stroke-width="0.5"/>
<rect x="80.25" y="25.25" width="4.5" height="4.5" fill="#040404" stroke="black" stroke-width="0.5"/>
<rect x="70.25" y="35.25" width="4.5" height="4.5" fill="#040404" stroke="black" stroke-width="0.5"/>
<rect x="75.25" y="35.25" width="4.5" height="4.5" fill="#040404" stroke="black" stroke-width="0.5"/>
<rect x="80.25" y="35.25" width="4.5" height="4.5" fill="#040404" stroke="black" stroke-width="0.5"/>
<rect x="70.25" y="30.25" width="4.5" height="4.5" fill="#040404" stroke="black" stroke-width="0.5"/>
<rect x="75.25" y="30.25" width="4.5" height="4.5" fill="#040404" stroke="black" stroke-width="0.5"/>
<rect x="80.25" y="30.25" width="4.5" height="4.5" fill="#040404" stroke="black" stroke-width="0.5"/>
<rect x="10.25" y="0.25" width="4.5" height="4.5" stroke="black" stroke-width="0.5"/>
<rect x="15.25" y="0.25" width="4.5" height="4.5" stroke="black" stroke-width="0.5"/>
<rect x="20.25" y="0.25" width="4.5" height="4.5" stroke="black" stroke-width="0.5"/>
<rect x="10.25" y="5.25" width="4.5" height="4.5" stroke="black" stroke-width="0.5"/>
<rect x="15.25" y="5.25" width="4.5" height="4.5" stroke="black" stroke-width="0.5"/>
<rect x="20.25" y="5.25" width="4.5" height="4.5" stroke="black" stroke-width="0.5"/>
<rect x="10.25" y="10.25" width="4.5" height="4.5" stroke="black" stroke-width="0.5"/>
<rect x="15.25" y="10.25" width="4.5" height="4.5" stroke="black" stroke-width="0.5"/>
<rect x="20.25" y="10.25" width="4.5" height="4.5" stroke="black" stroke-width="0.5"/>
<rect x="10.25" y="20.25" width="4.5" height="4.5" stroke="black" stroke-width="0.5"/>
<rect x="15.25" y="20.25" width="4.5" height="4.5" stroke="black" stroke-width="0.5"/>
<rect x="20.25" y="20.25" width="4.5" height="4.5" stroke="black" stroke-width="0.5"/>
<rect x="10.25" y="15.25" width="4.5" height="4.5" stroke="black" stroke-width="0.5"/>
<rect x="15.25" y="15.25" width="4.5" height="4.5" stroke="black" stroke-width="0.5"/>
<rect x="20.25" y="15.25" width="4.5" height="4.5" stroke="black" stroke-width="0.5"/>
<rect x="10.25" y="25.25" width="4.5" height="4.5" stroke="black" stroke-width="0.5"/>
<rect x="15.25" y="25.25" width="4.5" height="4.5" stroke="black" stroke-width="0.5"/>
<rect x="20.25" y="25.25" width="4.5" height="4.5" fill="#040404" stroke="black" stroke-width="0.5"/>
<rect x="10.25" y="35.25" width="4.5" height="4.5" fill="#040404" stroke="black" stroke-width="0.5"/>
<rect x="15.25" y="35.25" width="4.5" height="4.5" fill="#040404" stroke="black" stroke-width="0.5"/>
<rect x="20.25" y="35.25" width="4.5" height="4.5" fill="#040404" stroke="black" stroke-width="0.5"/>
<rect x="10.25" y="30.25" width="4.5" height="4.5" stroke="black" stroke-width="0.5"/>
<rect x="15.25" y="30.25" width="4.5" height="4.5" fill="#040404" stroke="black" stroke-width="0.5"/>
<rect x="20.25" y="30.25" width="4.5" height="4.5" fill="#040404" stroke="black" stroke-width="0.5"/>
<rect x="25.25" y="0.25" width="4.5" height="4.5" stroke="black" stroke-width="0.5"/>
<rect x="30.25" y="0.25" width="4.5" height="4.5" stroke="black" stroke-width="0.5"/>
<rect x="25.25" y="5.25" width="4.5" height="4.5" stroke="black" stroke-width="0.5"/>
<rect x="30.25" y="5.25" width="4.5" height="4.5" stroke="black" stroke-width="0.5"/>
<rect x="25.25" y="10.25" width="4.5" height="4.5" stroke="black" stroke-width="0.5"/>
<rect x="30.25" y="10.25" width="4.5" height="4.5" stroke="black" stroke-width="0.5"/>
<rect x="25.25" y="20.25" width="4.5" height="4.5" stroke="black" stroke-width="0.5"/>
<rect x="30.25" y="20.25" width="4.5" height="4.5" fill="#040404" stroke="black" stroke-width="0.5"/>
<rect x="25.25" y="15.25" width="4.5" height="4.5" stroke="black" stroke-width="0.5"/>
<rect x="30.25" y="15.25" width="4.5" height="4.5" stroke="black" stroke-width="0.5"/>
<rect x="25.25" y="25.25" width="4.5" height="4.5" fill="#040404" stroke="black" stroke-width="0.5"/>
<rect x="30.25" y="25.25" width="4.5" height="4.5" fill="#040404" stroke="black" stroke-width="0.5"/>
<rect x="25.25" y="35.25" width="4.5" height="4.5" fill="#040404" stroke="black" stroke-width="0.5"/>
<rect x="30.25" y="35.25" width="4.5" height="4.5" fill="#040404" stroke="black" stroke-width="0.5"/>
<rect x="25.25" y="30.25" width="4.5" height="4.5" fill="#040404" stroke="black" stroke-width="0.5"/>
<rect x="30.25" y="30.25" width="4.5" height="4.5" fill="#040404" stroke="black" stroke-width="0.5"/>
<rect x="35.25" y="0.25" width="4.5" height="4.5" stroke="black" stroke-width="0.5"/>
<rect x="40.25" y="0.25" width="4.5" height="4.5" stroke="black" stroke-width="0.5"/>
<rect x="35.25" y="5.25" width="4.5" height="4.5" stroke="black" stroke-width="0.5"/>
<rect x="40.25" y="5.25" width="4.5" height="4.5" stroke="black" stroke-width="0.5"/>
<rect x="35.25" y="10.25" width="4.5" height="4.5" stroke="black" stroke-width="0.5"/>
<rect x="40.25" y="10.25" width="4.5" height="4.5" fill="#040404" stroke="black" stroke-width="0.5"/>
<rect x="35.25" y="20.25" width="4.5" height="4.5" fill="#040404" stroke="black" stroke-width="0.5"/>
<rect x="40.25" y="20.25" width="4.5" height="4.5" stroke="black" stroke-width="0.5"/>
<rect x="35.25" y="15.25" width="4.5" height="4.5" fill="#040404" stroke="black" stroke-width="0.5"/>
<rect x="40.25" y="15.25" width="4.5" height="4.5" fill="#040404" stroke="black" stroke-width="0.5"/>
<rect x="35.25" y="25.25" width="4.5" height="4.5" stroke="black" stroke-width="0.5"/>
<rect x="40.25" y="25.25" width="4.5" height="4.5" stroke="black" stroke-width="0.5"/>
<rect x="35.25" y="35.25" width="4.5" height="4.5" fill="#040404" stroke="black" stroke-width="0.5"/>
<rect x="40.25" y="35.25" width="4.5" height="4.5" fill="#040404" stroke="black" stroke-width="0.5"/>
<rect x="35.25" y="30.25" width="4.5" height="4.5" fill="#040404" stroke="black" stroke-width="0.5"/>
<rect x="40.25" y="30.25" width="4.5" height="4.5" stroke="black" stroke-width="0.5"/>
<rect x="45.25" y="30.25" width="4.5" height="4.5" fill="#040404" stroke="black" stroke-width="0.5"/>
<rect x="45.25" y="65.25" width="4.5" height="4.5" stroke="black" stroke-width="0.5"/>
<rect x="50.25" y="65.25" width="4.5" height="4.5" stroke="black" stroke-width="0.5"/>
<rect x="55.25" y="65.25" width="4.5" height="4.5" stroke="black" stroke-width="0.5"/>
<rect x="60.25" y="65.25" width="4.5" height="4.5" fill="#040404" stroke="black" stroke-width="0.5"/>
<rect x="65.25" y="65.25" width="4.5" height="4.5" stroke="black" stroke-width="0.5"/>
<rect x="45.25" y="65.25" width="4.5" height="4.5" stroke="black" stroke-width="0.5"/>
<rect x="45.25" y="60.25" width="4.5" height="4.5" stroke="black" stroke-width="0.5"/>
<rect x="50.25" y="60.25" width="4.5" height="4.5" stroke="black" stroke-width="0.5"/>
<rect x="55.25" y="60.25" width="4.5" height="4.5" stroke="black" stroke-width="0.5"/>
<rect x="60.25" y="60.25" width="4.5" height="4.5" stroke="black" stroke-width="0.5"/>
<rect x="65.25" y="60.25" width="4.5" height="4.5" fill="#040404" stroke="black" stroke-width="0.5"/>
<rect x="70.25" y="65.25" width="4.5" height="4.5" stroke="black" stroke-width="0.5"/>
<rect x="75.25" y="65.25" width="4.5" height="4.5" fill="#040404" stroke="black" stroke-width="0.5"/>
<rect x="80.25" y="65.25" width="4.5" height="4.5" fill="#040404" stroke="black" stroke-width="0.5"/>
<rect x="70.25" y="60.25" width="4.5" height="4.5" fill="#040404" stroke="black" stroke-width="0.5"/>
<rect x="75.25" y="60.25" width="4.5" height="4.5" fill="#040404" stroke="black" stroke-width="0.5"/>
<rect x="80.25" y="60.25" width="4.5" height="4.5" stroke="black" stroke-width="0.5"/>
<rect x="10.25" y="65.25" width="4.5" height="4.5" stroke="black" stroke-width="0.5"/>
<rect x="15.25" y="65.25" width="4.5" height="4.5" stroke="black" stroke-width="0.5"/>
<rect x="20.25" y="65.25" width="4.5" height="4.5" stroke="black" stroke-width="0.5"/>
<rect x="10.25" y="60.25" width="4.5" height="4.5" stroke="black" stroke-width="0.5"/>
<rect x="15.25" y="60.25" width="4.5" height="4.5" stroke="black" stroke-width="0.5"/>
<rect x="20.25" y="60.25" width="4.5" height="4.5" stroke="black" stroke-width="0.5"/>
<rect x="25.25" y="65.25" width="4.5" height="4.5" stroke="black" stroke-width="0.5"/>
<rect x="30.25" y="65.25" width="4.5" height="4.5" stroke="black" stroke-width="0.5"/>
<rect x="25.25" y="60.25" width="4.5" height="4.5" stroke="black" stroke-width="0.5"/>
<rect x="30.25" y="60.25" width="4.5" height="4.5" stroke="black" stroke-width="0.5"/>
<rect x="35.25" y="65.25" width="4.5" height="4.5" stroke="black" stroke-width="0.5"/>
<rect x="40.25" y="65.25" width="4.5" height="4.5" stroke="black" stroke-width="0.5"/>
<rect x="35.25" y="60.25" width="4.5" height="4.5" stroke="black" stroke-width="0.5"/>
<rect x="40.25" y="60.25" width="4.5" height="4.5" stroke="black" stroke-width="0.5"/>
<rect x="45.25" y="60.25" width="4.5" height="4.5" stroke="black" stroke-width="0.5"/>
<rect x="45.25" y="55.25" width="4.5" height="4.5" stroke="black" stroke-width="0.5"/>
<rect x="50.25" y="55.25" width="4.5" height="4.5" stroke="black" stroke-width="0.5"/>
<rect x="55.25" y="55.25" width="4.5" height="4.5" fill="#040404" stroke="black" stroke-width="0.5"/>
<rect x="60.25" y="55.25" width="4.5" height="4.5" fill="#040404" stroke="black" stroke-width="0.5"/>
<rect x="65.25" y="55.25" width="4.5" height="4.5" fill="#040404" stroke="black" stroke-width="0.5"/>
<rect x="45.25" y="55.25" width="4.5" height="4.5" stroke="black" stroke-width="0.5"/>
<rect x="45.25" y="50.25" width="4.5" height="4.5" stroke="black" stroke-width="0.5"/>
<rect x="50.25" y="50.25" width="4.5" height="4.5" fill="#040404" stroke="black" stroke-width="0.5"/>
<rect x="55.25" y="50.25" width="4.5" height="4.5" fill="#040404" stroke="black" stroke-width="0.5"/>
<rect x="60.25" y="50.25" width="4.5" height="4.5" fill="#040404" stroke="black" stroke-width="0.5"/>
<rect x="65.25" y="50.25" width="4.5" height="4.5" fill="#040404" stroke="black" stroke-width="0.5"/>
<rect x="70.25" y="55.25" width="4.5" height="4.5" fill="#040404" stroke="black" stroke-width="0.5"/>
<rect x="75.25" y="55.25" width="4.5" height="4.5" fill="#040404" stroke="black" stroke-width="0.5"/>
<rect x="80.25" y="55.25" width="4.5" height="4.5" fill="#040404" stroke="black" stroke-width="0.5"/>
<rect x="70.25" y="50.25" width="4.5" height="4.5" fill="#040404" stroke="black" stroke-width="0.5"/>
<rect x="75.25" y="50.25" width="4.5" height="4.5" fill="#040404" stroke="black" stroke-width="0.5"/>
<rect x="80.25" y="50.25" width="4.5" height="4.5" fill="#040404" stroke="black" stroke-width="0.5"/>
<rect x="10.25" y="55.25" width="4.5" height="4.5" stroke="black" stroke-width="0.5"/>
<rect x="15.25" y="55.25" width="4.5" height="4.5" stroke="black" stroke-width="0.5"/>
<rect x="20.25" y="55.25" width="4.5" height="4.5" stroke="black" stroke-width="0.5"/>
<rect x="10.25" y="50.25" width="4.5" height="4.5" stroke="black" stroke-width="0.5"/>
<rect x="15.25" y="50.25" width="4.5" height="4.5" stroke="black" stroke-width="0.5"/>
<rect x="20.25" y="50.25" width="4.5" height="4.5" stroke="black" stroke-width="0.5"/>
<rect x="25.25" y="55.25" width="4.5" height="4.5" stroke="black" stroke-width="0.5"/>
<rect x="30.25" y="55.25" width="4.5" height="4.5" stroke="black" stroke-width="0.5"/>
<rect x="25.25" y="50.25" width="4.5" height="4.5" stroke="black" stroke-width="0.5"/>
<rect x="30.25" y="50.25" width="4.5" height="4.5" stroke="black" stroke-width="0.5"/>
<rect x="35.25" y="55.25" width="4.5" height="4.5" stroke="black" stroke-width="0.5"/>
<rect x="40.25" y="55.25" width="4.5" height="4.5" stroke="black" stroke-width="0.5"/>
<rect x="35.25" y="50.25" width="4.5" height="4.5" stroke="black" stroke-width="0.5"/>
<rect x="40.25" y="50.25" width="4.5" height="4.5" fill="#040404" stroke="black" stroke-width="0.5"/>
<rect x="45.25" y="50.25" width="4.5" height="4.5" fill="#040404" stroke="black" stroke-width="0.5"/>
<rect x="45.25" y="45.25" width="4.5" height="4.5" stroke="black" stroke-width="0.5"/>
<rect x="50.25" y="45.25" width="4.5" height="4.5" fill="#040404" stroke="black" stroke-width="0.5"/>
<rect x="55.25" y="45.25" width="4.5" height="4.5" fill="#040404" stroke="black" stroke-width="0.5"/>
<rect x="60.25" y="45.25" width="4.5" height="4.5" fill="#040404" stroke="black" stroke-width="0.5"/>
<rect x="65.25" y="45.25" width="4.5" height="4.5" fill="#040404" stroke="black" stroke-width="0.5"/>
<rect x="45.25" y="45.25" width="4.5" height="4.5" fill="#040404" stroke="black" stroke-width="0.5"/>
<rect x="45.25" y="40.25" width="4.5" height="4.5" stroke="black" stroke-width="0.5"/>
<rect x="50.25" y="40.25" width="4.5" height="4.5" fill="#040404" stroke="black" stroke-width="0.5"/>
<rect x="55.25" y="40.25" width="4.5" height="4.5" fill="#040404" stroke="black" stroke-width="0.5"/>
<rect x="60.25" y="40.25" width="4.5" height="4.5" fill="#040404" stroke="black" stroke-width="0.5"/>
<rect x="65.25" y="40.25" width="4.5" height="4.5" fill="#040404" stroke="black" stroke-width="0.5"/>
<rect x="70.25" y="45.25" width="4.5" height="4.5" fill="#040404" stroke="black" stroke-width="0.5"/>
<rect x="75.25" y="45.25" width="4.5" height="4.5" fill="#040404" stroke="black" stroke-width="0.5"/>
<rect x="80.25" y="45.25" width="4.5" height="4.5" fill="#040404" stroke="black" stroke-width="0.5"/>
<rect x="70.25" y="40.25" width="4.5" height="4.5" fill="#040404" stroke="black" stroke-width="0.5"/>
<rect x="75.25" y="40.25" width="4.5" height="4.5" fill="#040404" stroke="black" stroke-width="0.5"/>
<rect x="80.25" y="40.25" width="4.5" height="4.5" fill="#040404" stroke="black" stroke-width="0.5"/>
<rect x="85.25" y="0.25" width="4.5" height="4.5" stroke="black" stroke-width="0.5"/>
<rect x="85.25" y="5.25" width="4.5" height="4.5" stroke="black" stroke-width="0.5"/>
<rect x="85.25" y="10.25" width="4.5" height="4.5" stroke="black" stroke-width="0.5"/>
<rect x="85.25" y="20.25" width="4.5" height="4.5" fill="#040404" stroke="black" stroke-width="0.5"/>
<rect x="85.25" y="15.25" width="4.5" height="4.5" stroke="black" stroke-width="0.5"/>
<rect x="90.25" y="0.25" width="4.5" height="4.5" stroke="black" stroke-width="0.5"/>
<rect x="95.25" y="0.25" width="4.5" height="4.5" stroke="black" stroke-width="0.5"/>
<rect x="100.25" y="0.25" width="4.5" height="4.5" stroke="black" stroke-width="0.5"/>
<rect x="90.25" y="5.25" width="4.5" height="4.5" stroke="black" stroke-width="0.5"/>
<rect x="95.25" y="5.25" width="4.5" height="4.5" stroke="black" stroke-width="0.5"/>
<rect x="100.25" y="5.25" width="4.5" height="4.5" stroke="black" stroke-width="0.5"/>
<rect x="90.25" y="10.25" width="4.5" height="4.5" stroke="black" stroke-width="0.5"/>
<rect x="95.25" y="10.25" width="4.5" height="4.5" stroke="black" stroke-width="0.5"/>
<rect x="100.25" y="10.25" width="4.5" height="4.5" stroke="black" stroke-width="0.5"/>
<rect x="90.25" y="20.25" width="4.5" height="4.5" stroke="black" stroke-width="0.5"/>
<rect x="95.25" y="20.25" width="4.5" height="4.5" stroke="black" stroke-width="0.5"/>
<rect x="100.25" y="20.25" width="4.5" height="4.5" stroke="black" stroke-width="0.5"/>
<rect x="90.25" y="15.25" width="4.5" height="4.5" stroke="black" stroke-width="0.5"/>
<rect x="95.25" y="15.25" width="4.5" height="4.5" stroke="black" stroke-width="0.5"/>
<rect x="100.25" y="15.25" width="4.5" height="4.5" stroke="black" stroke-width="0.5"/>
<rect x="85.25" y="25.25" width="4.5" height="4.5" fill="#040404" stroke="black" stroke-width="0.5"/>
<rect x="85.25" y="35.25" width="4.5" height="4.5" fill="#040404" stroke="black" stroke-width="0.5"/>
<rect x="85.25" y="30.25" width="4.5" height="4.5" fill="#040404" stroke="black" stroke-width="0.5"/>
<rect x="90.25" y="25.25" width="4.5" height="4.5" fill="#040404" stroke="black" stroke-width="0.5"/>
<rect x="95.25" y="25.25" width="4.5" height="4.5" stroke="black" stroke-width="0.5"/>
<rect x="100.25" y="25.25" width="4.5" height="4.5" stroke="black" stroke-width="0.5"/>
<rect x="90.25" y="35.25" width="4.5" height="4.5" fill="#040404" stroke="black" stroke-width="0.5"/>
<rect x="95.25" y="35.25" width="4.5" height="4.5" fill="#040404" stroke="black" stroke-width="0.5"/>
<rect x="100.25" y="35.25" width="4.5" height="4.5" stroke="black" stroke-width="0.5"/>
<rect x="90.25" y="30.25" width="4.5" height="4.5" fill="#040404" stroke="black" stroke-width="0.5"/>
<rect x="95.25" y="30.25" width="4.5" height="4.5" stroke="black" stroke-width="0.5"/>
<rect x="100.25" y="30.25" width="4.5" height="4.5" stroke="black" stroke-width="0.5"/>
<rect x="85.25" y="65.25" width="4.5" height="4.5" stroke="black" stroke-width="0.5"/>
<rect x="85.25" y="60.25" width="4.5" height="4.5" stroke="black" stroke-width="0.5"/>
<rect x="90.25" y="65.25" width="4.5" height="4.5" stroke="black" stroke-width="0.5"/>
<rect x="95.25" y="65.25" width="4.5" height="4.5" stroke="black" stroke-width="0.5"/>
<rect x="100.25" y="65.25" width="4.5" height="4.5" stroke="black" stroke-width="0.5"/>
<rect x="90.25" y="60.25" width="4.5" height="4.5" stroke="black" stroke-width="0.5"/>
<rect x="95.25" y="60.25" width="4.5" height="4.5" stroke="black" stroke-width="0.5"/>
<rect x="100.25" y="60.25" width="4.5" height="4.5" stroke="black" stroke-width="0.5"/>
<rect x="85.25" y="55.25" width="4.5" height="4.5" fill="#040404" stroke="black" stroke-width="0.5"/>
<rect x="85.25" y="50.25" width="4.5" height="4.5" fill="#040404" stroke="black" stroke-width="0.5"/>
<rect x="90.25" y="55.25" width="4.5" height="4.5" fill="#040404" stroke="black" stroke-width="0.5"/>
<rect x="95.25" y="55.25" width="4.5" height="4.5" stroke="black" stroke-width="0.5"/>
<rect x="100.25" y="55.25" width="4.5" height="4.5" stroke="black" stroke-width="0.5"/>
<rect x="90.25" y="50.25" width="4.5" height="4.5" fill="#040404" stroke="black" stroke-width="0.5"/>
<rect x="95.25" y="50.25" width="4.5" height="4.5" fill="#040404" stroke="black" stroke-width="0.5"/>
<rect x="100.25" y="50.25" width="4.5" height="4.5" stroke="black" stroke-width="0.5"/>
<rect x="85.25" y="45.25" width="4.5" height="4.5" fill="#040404" stroke="black" stroke-width="0.5"/>
<rect x="85.25" y="40.25" width="4.5" height="4.5" fill="#040404" stroke="black" stroke-width="0.5"/>
<rect x="90.25" y="45.25" width="4.5" height="4.5" fill="#040404" stroke="black" stroke-width="0.5"/>
<rect x="95.25" y="45.25" width="4.5" height="4.5" fill="#040404" stroke="black" stroke-width="0.5"/>
<rect x="100.25" y="45.25" width="4.5" height="4.5" fill="#040404" stroke="black" stroke-width="0.5"/>
<rect x="90.25" y="40.25" width="4.5" height="4.5" fill="#040404" stroke="black" stroke-width="0.5"/>
<rect x="95.25" y="40.25" width="4.5" height="4.5" fill="#040404" stroke="black" stroke-width="0.5"/>
<rect x="100.25" y="40.25" width="4.5" height="4.5" fill="#040404" stroke="black" stroke-width="0.5"/>
<rect x="105.25" y="0.25" width="4.5" height="4.5" stroke="black" stroke-width="0.5"/>
<rect x="105.25" y="5.25" width="4.5" height="4.5" stroke="black" stroke-width="0.5"/>
<rect x="105.25" y="10.25" width="4.5" height="4.5" stroke="black" stroke-width="0.5"/>
<rect x="105.25" y="20.25" width="4.5" height="4.5" stroke="black" stroke-width="0.5"/>
<rect x="105.25" y="15.25" width="4.5" height="4.5" stroke="black" stroke-width="0.5"/>
<rect x="110.25" y="0.25" width="4.5" height="4.5" stroke="black" stroke-width="0.5"/>
<rect x="115.25" y="0.25" width="4.5" height="4.5" stroke="black" stroke-width="0.5"/>
<rect x="120.25" y="0.25" width="4.5" height="4.5" stroke="black" stroke-width="0.5"/>
<rect x="110.25" y="5.25" width="4.5" height="4.5" stroke="black" stroke-width="0.5"/>
<rect x="115.25" y="5.25" width="4.5" height="4.5" stroke="black" stroke-width="0.5"/>
<rect x="120.25" y="5.25" width="4.5" height="4.5" stroke="black" stroke-width="0.5"/>
<rect x="110.25" y="10.25" width="4.5" height="4.5" stroke="black" stroke-width="0.5"/>
<rect x="115.25" y="10.25" width="4.5" height="4.5" stroke="black" stroke-width="0.5"/>
<rect x="120.25" y="10.25" width="4.5" height="4.5" stroke="black" stroke-width="0.5"/>
<rect x="110.25" y="20.25" width="4.5" height="4.5" stroke="black" stroke-width="0.5"/>
<rect x="115.25" y="20.25" width="4.5" height="4.5" stroke="black" stroke-width="0.5"/>
<rect x="120.25" y="20.25" width="4.5" height="4.5" stroke="black" stroke-width="0.5"/>
<rect x="110.25" y="15.25" width="4.5" height="4.5" stroke="black" stroke-width="0.5"/>
<rect x="115.25" y="15.25" width="4.5" height="4.5" stroke="black" stroke-width="0.5"/>
<rect x="120.25" y="15.25" width="4.5" height="4.5" stroke="black" stroke-width="0.5"/>
<rect x="105.25" y="25.25" width="4.5" height="4.5" stroke="black" stroke-width="0.5"/>
<rect x="105.25" y="35.25" width="4.5" height="4.5" stroke="black" stroke-width="0.5"/>
<rect x="105.25" y="30.25" width="4.5" height="4.5" stroke="black" stroke-width="0.5"/>
<rect x="110.25" y="25.25" width="4.5" height="4.5" stroke="black" stroke-width="0.5"/>
<rect x="115.25" y="25.25" width="4.5" height="4.5" stroke="black" stroke-width="0.5"/>
<rect x="120.25" y="25.25" width="4.5" height="4.5" stroke="black" stroke-width="0.5"/>
<rect x="110.25" y="35.25" width="4.5" height="4.5" stroke="black" stroke-width="0.5"/>
<rect x="115.25" y="35.25" width="4.5" height="4.5" stroke="black" stroke-width="0.5"/>
<rect x="120.25" y="35.25" width="4.5" height="4.5" stroke="black" stroke-width="0.5"/>
<rect x="110.25" y="30.25" width="4.5" height="4.5" stroke="black" stroke-width="0.5"/>
<rect x="115.25" y="30.25" width="4.5" height="4.5" stroke="black" stroke-width="0.5"/>
<rect x="120.25" y="30.25" width="4.5" height="4.5" stroke="black" stroke-width="0.5"/>
<rect x="105.25" y="65.25" width="4.5" height="4.5" stroke="black" stroke-width="0.5"/>
<rect x="105.25" y="60.25" width="4.5" height="4.5" stroke="black" stroke-width="0.5"/>
<rect x="110.25" y="65.25" width="4.5" height="4.5" stroke="black" stroke-width="0.5"/>
<rect x="115.25" y="65.25" width="4.5" height="4.5" stroke="black" stroke-width="0.5"/>
<rect x="120.25" y="65.25" width="4.5" height="4.5" stroke="black" stroke-width="0.5"/>
<rect x="110.25" y="60.25" width="4.5" height="4.5" stroke="black" stroke-width="0.5"/>
<rect x="115.25" y="60.25" width="4.5" height="4.5" stroke="black" stroke-width="0.5"/>
<rect x="120.25" y="60.25" width="4.5" height="4.5" stroke="black" stroke-width="0.5"/>
<rect x="105.25" y="55.25" width="4.5" height="4.5" stroke="black" stroke-width="0.5"/>
<rect x="105.25" y="50.25" width="4.5" height="4.5" stroke="black" stroke-width="0.5"/>
<rect x="110.25" y="55.25" width="4.5" height="4.5" stroke="black" stroke-width="0.5"/>
<rect x="115.25" y="55.25" width="4.5" height="4.5" stroke="black" stroke-width="0.5"/>
<rect x="120.25" y="55.25" width="4.5" height="4.5" stroke="black" stroke-width="0.5"/>
<rect x="110.25" y="50.25" width="4.5" height="4.5" stroke="black" stroke-width="0.5"/>
<rect x="115.25" y="50.25" width="4.5" height="4.5" stroke="black" stroke-width="0.5"/>
<rect x="120.25" y="50.25" width="4.5" height="4.5" stroke="black" stroke-width="0.5"/>
<rect x="105.25" y="45.25" width="4.5" height="4.5" stroke="black" stroke-width="0.5"/>
<rect x="105.25" y="40.25" width="4.5" height="4.5" stroke="black" stroke-width="0.5"/>
<rect x="110.25" y="45.25" width="4.5" height="4.5" stroke="black" stroke-width="0.5"/>
<rect x="115.25" y="45.25" width="4.5" height="4.5" stroke="black" stroke-width="0.5"/>
<rect x="120.25" y="45.25" width="4.5" height="4.5" stroke="black" stroke-width="0.5"/>
<rect x="110.25" y="40.25" width="4.5" height="4.5" stroke="black" stroke-width="0.5"/>
<rect x="115.25" y="40.25" width="4.5" height="4.5" stroke="black" stroke-width="0.5"/>
<rect x="120.25" y="40.25" width="4.5" height="4.5" stroke="black" stroke-width="0.5"/>
<rect x="10.25" y="45.25" width="4.5" height="4.5" stroke="black" stroke-width="0.5"/>
<rect x="15.25" y="45.25" width="4.5" height="4.5" stroke="black" stroke-width="0.5"/>
<rect x="20.25" y="45.25" width="4.5" height="4.5" fill="#040404" stroke="black" stroke-width="0.5"/>
<rect x="10.25" y="40.25" width="4.5" height="4.5" fill="#040404" stroke="black" stroke-width="0.5"/>
<rect x="15.25" y="40.25" width="4.5" height="4.5" fill="#040404" stroke="black" stroke-width="0.5"/>
<rect x="20.25" y="40.25" width="4.5" height="4.5" fill="#040404" stroke="black" stroke-width="0.5"/>
<rect x="25.25" y="45.25" width="4.5" height="4.5" fill="#040404" stroke="black" stroke-width="0.5"/>
<rect x="30.25" y="45.25" width="4.5" height="4.5" fill="#040404" stroke="black" stroke-width="0.5"/>
<rect x="25.25" y="40.25" width="4.5" height="4.5" fill="#040404" stroke="black" stroke-width="0.5"/>
<rect x="30.25" y="40.25" width="4.5" height="4.5" fill="#040404" stroke="black" stroke-width="0.5"/>
<rect x="35.25" y="45.25" width="4.5" height="4.5" fill="#040404" stroke="black" stroke-width="0.5"/>
<rect x="40.25" y="45.25" width="4.5" height="4.5" fill="#040404" stroke="black" stroke-width="0.5"/>
<rect x="35.25" y="40.25" width="4.5" height="4.5" fill="#040404" stroke="black" stroke-width="0.5"/>
<rect x="40.25" y="40.25" width="4.5" height="4.5" fill="#040404" stroke="black" stroke-width="0.5"/>
<rect x="45.25" y="40.25" width="4.5" height="4.5" fill="#040404" stroke="black" stroke-width="0.5"/>
<rect x="45.25" y="70.25" width="4.5" height="4.5" stroke="black" stroke-width="0.5"/>
<rect x="50.25" y="70.25" width="4.5" height="4.5" stroke="black" stroke-width="0.5"/>
<rect x="55.25" y="70.25" width="4.5" height="4.5" stroke="black" stroke-width="0.5"/>
<rect x="60.25" y="70.25" width="4.5" height="4.5" stroke="black" stroke-width="0.5"/>
<rect x="65.25" y="70.25" width="4.5" height="4.5" stroke="black" stroke-width="0.5"/>
<rect x="45.25" y="70.25" width="4.5" height="4.5" stroke="black" stroke-width="0.5"/>
<rect x="70.25" y="70.25" width="4.5" height="4.5" stroke="black" stroke-width="0.5"/>
<rect x="75.25" y="70.25" width="4.5" height="4.5" stroke="black" stroke-width="0.5"/>
<rect x="80.25" y="70.25" width="4.5" height="4.5" stroke="black" stroke-width="0.5"/>
<rect x="10.25" y="70.25" width="4.5" height="4.5" stroke="black" stroke-width="0.5"/>
<rect x="15.25" y="70.25" width="4.5" height="4.5" stroke="black" stroke-width="0.5"/>
<rect x="20.25" y="70.25" width="4.5" height="4.5" stroke="black" stroke-width="0.5"/>
<rect x="25.25" y="70.25" width="4.5" height="4.5" stroke="black" stroke-width="0.5"/>
<rect x="30.25" y="70.25" width="4.5" height="4.5" stroke="black" stroke-width="0.5"/>
<rect x="35.25" y="70.25" width="4.5" height="4.5" stroke="black" stroke-width="0.5"/>
<rect x="40.25" y="70.25" width="4.5" height="4.5" stroke="black" stroke-width="0.5"/>
<rect x="45.25" y="85.25" width="4.5" height="4.5" stroke="black" stroke-width="0.5"/>
<rect x="50.25" y="85.25" width="4.5" height="4.5" stroke="black" stroke-width="0.5"/>
<rect x="55.25" y="85.25" width="4.5" height="4.5" stroke="black" stroke-width="0.5"/>
<rect x="60.25" y="85.25" width="4.5" height="4.5" stroke="black" stroke-width="0.5"/>
<rect x="65.25" y="85.25" width="4.5" height="4.5" stroke="black" stroke-width="0.5"/>
<rect x="70.25" y="85.25" width="4.5" height="4.5" stroke="black" stroke-width="0.5"/>
<rect x="75.25" y="85.25" width="4.5" height="4.5" stroke="black" stroke-width="0.5"/>
<rect x="80.25" y="85.25" width="4.5" height="4.5" stroke="black" stroke-width="0.5"/>
<rect x="10.25" y="85.25" width="4.5" height="4.5" stroke="black" stroke-width="0.5"/>
<rect x="15.25" y="85.25" width="4.5" height="4.5" stroke="black" stroke-width="0.5"/>
<rect x="20.25" y="85.25" width="4.5" height="4.5" stroke="black" stroke-width="0.5"/>
<rect x="25.25" y="85.25" width="4.5" height="4.5" stroke="black" stroke-width="0.5"/>
<rect x="30.25" y="85.25" width="4.5" height="4.5" stroke="black" stroke-width="0.5"/>
<rect x="35.25" y="85.25" width="4.5" height="4.5" stroke="black" stroke-width="0.5"/>
<rect x="40.25" y="85.25" width="4.5" height="4.5" stroke="black" stroke-width="0.5"/>
<rect x="45.25" y="85.25" width="4.5" height="4.5" stroke="black" stroke-width="0.5"/>
<rect x="45.25" y="80.25" width="4.5" height="4.5" stroke="black" stroke-width="0.5"/>
<rect x="50.25" y="80.25" width="4.5" height="4.5" stroke="black" stroke-width="0.5"/>
<rect x="55.25" y="80.25" width="4.5" height="4.5" stroke="black" stroke-width="0.5"/>
<rect x="60.25" y="80.25" width="4.5" height="4.5" stroke="black" stroke-width="0.5"/>
<rect x="65.25" y="80.25" width="4.5" height="4.5" stroke="black" stroke-width="0.5"/>
<rect x="45.25" y="80.25" width="4.5" height="4.5" stroke="black" stroke-width="0.5"/>
<rect x="45.25" y="75.25" width="4.5" height="4.5" stroke="black" stroke-width="0.5"/>
<rect x="50.25" y="75.25" width="4.5" height="4.5" stroke="black" stroke-width="0.5"/>
<rect x="55.25" y="75.25" width="4.5" height="4.5" stroke="black" stroke-width="0.5"/>
<rect x="60.25" y="75.25" width="4.5" height="4.5" stroke="black" stroke-width="0.5"/>
<rect x="65.25" y="75.25" width="4.5" height="4.5" stroke="black" stroke-width="0.5"/>
<rect x="70.25" y="80.25" width="4.5" height="4.5" stroke="black" stroke-width="0.5"/>
<rect x="75.25" y="80.25" width="4.5" height="4.5" stroke="black" stroke-width="0.5"/>
<rect x="80.25" y="80.25" width="4.5" height="4.5" stroke="black" stroke-width="0.5"/>
<rect x="70.25" y="75.25" width="4.5" height="4.5" stroke="black" stroke-width="0.5"/>
<rect x="75.25" y="75.25" width="4.5" height="4.5" stroke="black" stroke-width="0.5"/>
<rect x="80.25" y="75.25" width="4.5" height="4.5" stroke="black" stroke-width="0.5"/>
<rect x="85.25" y="70.25" width="4.5" height="4.5" stroke="black" stroke-width="0.5"/>
<rect x="90.25" y="70.25" width="4.5" height="4.5" stroke="black" stroke-width="0.5"/>
<rect x="95.25" y="70.25" width="4.5" height="4.5" stroke="black" stroke-width="0.5"/>
<rect x="100.25" y="70.25" width="4.5" height="4.5" stroke="black" stroke-width="0.5"/>
<rect x="85.25" y="85.25" width="4.5" height="4.5" stroke="black" stroke-width="0.5"/>
<rect x="90.25" y="85.25" width="4.5" height="4.5" stroke="black" stroke-width="0.5"/>
<rect x="95.25" y="85.25" width="4.5" height="4.5" stroke="black" stroke-width="0.5"/>
<rect x="100.25" y="85.25" width="4.5" height="4.5" stroke="black" stroke-width="0.5"/>
<rect x="85.25" y="80.25" width="4.5" height="4.5" stroke="black" stroke-width="0.5"/>
<rect x="85.25" y="75.25" width="4.5" height="4.5" stroke="black" stroke-width="0.5"/>
<rect x="90.25" y="80.25" width="4.5" height="4.5" stroke="black" stroke-width="0.5"/>
<rect x="95.25" y="80.25" width="4.5" height="4.5" stroke="black" stroke-width="0.5"/>
<rect x="100.25" y="80.25" width="4.5" height="4.5" stroke="black" stroke-width="0.5"/>
<rect x="90.25" y="75.25" width="4.5" height="4.5" stroke="black" stroke-width="0.5"/>
<rect x="95.25" y="75.25" width="4.5" height="4.5" stroke="black" stroke-width="0.5"/>
<rect x="100.25" y="75.25" width="4.5" height="4.5" stroke="black" stroke-width="0.5"/>
<rect x="105.25" y="70.25" width="4.5" height="4.5" stroke="black" stroke-width="0.5"/>
<rect x="110.25" y="70.25" width="4.5" height="4.5" stroke="black" stroke-width="0.5"/>
<rect x="115.25" y="70.25" width="4.5" height="4.5" stroke="black" stroke-width="0.5"/>
<rect x="120.25" y="70.25" width="4.5" height="4.5" stroke="black" stroke-width="0.5"/>
<rect x="105.25" y="85.25" width="4.5" height="4.5" stroke="black" stroke-width="0.5"/>
<rect x="110.25" y="85.25" width="4.5" height="4.5" stroke="black" stroke-width="0.5"/>
<rect x="115.25" y="85.25" width="4.5" height="4.5" stroke="black" stroke-width="0.5"/>
<rect x="120.25" y="85.25" width="4.5" height="4.5" stroke="black" stroke-width="0.5"/>
<rect x="105.25" y="80.25" width="4.5" height="4.5" stroke="black" stroke-width="0.5"/>
<rect x="105.25" y="75.25" width="4.5" height="4.5" stroke="black" stroke-width="0.5"/>
<rect x="110.25" y="80.25" width="4.5" height="4.5" stroke="black" stroke-width="0.5"/>
<rect x="115.25" y="80.25" width="4.5" height="4.5" stroke="black" stroke-width="0.5"/>
<rect x="120.25" y="80.25" width="4.5" height="4.5" stroke="black" stroke-width="0.5"/>
<rect x="110.25" y="75.25" width="4.5" height="4.5" stroke="black" stroke-width="0.5"/>
<rect x="115.25" y="75.25" width="4.5" height="4.5" stroke="black" stroke-width="0.5"/>
<rect x="120.25" y="75.25" width="4.5" height="4.5" stroke="black" stroke-width="0.5"/>
<rect x="0.25" y="0.25" width="4.5" height="4.5" stroke="black" stroke-width="0.5"/>
<rect x="5.25" y="0.25" width="4.5" height="4.5" stroke="black" stroke-width="0.5"/>
<rect x="0.25" y="5.25" width="4.5" height="4.5" stroke="black" stroke-width="0.5"/>
<rect x="5.25" y="5.25" width="4.5" height="4.5" stroke="black" stroke-width="0.5"/>
<rect x="0.25" y="10.25" width="4.5" height="4.5" stroke="black" stroke-width="0.5"/>
<rect x="5.25" y="10.25" width="4.5" height="4.5" stroke="black" stroke-width="0.5"/>
<rect x="0.25" y="20.25" width="4.5" height="4.5" stroke="black" stroke-width="0.5"/>
<rect x="5.25" y="20.25" width="4.5" height="4.5" stroke="black" stroke-width="0.5"/>
<rect x="0.25" y="15.25" width="4.5" height="4.5" stroke="black" stroke-width="0.5"/>
<rect x="5.25" y="15.25" width="4.5" height="4.5" stroke="black" stroke-width="0.5"/>
<rect x="0.25" y="25.25" width="4.5" height="4.5" stroke="black" stroke-width="0.5"/>
<rect x="5.25" y="25.25" width="4.5" height="4.5" stroke="black" stroke-width="0.5"/>
<rect x="0.25" y="35.25" width="4.5" height="4.5" stroke="black" stroke-width="0.5"/>
<rect x="5.25" y="35.25" width="4.5" height="4.5" stroke="black" stroke-width="0.5"/>
<rect x="0.25" y="30.25" width="4.5" height="4.5" stroke="black" stroke-width="0.5"/>
<rect x="5.25" y="30.25" width="4.5" height="4.5" stroke="black" stroke-width="0.5"/>
<rect x="0.25" y="65.25" width="4.5" height="4.5" stroke="black" stroke-width="0.5"/>
<rect x="5.25" y="65.25" width="4.5" height="4.5" stroke="black" stroke-width="0.5"/>
<rect x="0.25" y="60.25" width="4.5" height="4.5" stroke="black" stroke-width="0.5"/>
<rect x="5.25" y="60.25" width="4.5" height="4.5" stroke="black" stroke-width="0.5"/>
<rect x="0.25" y="55.25" width="4.5" height="4.5" stroke="black" stroke-width="0.5"/>
<rect x="5.25" y="55.25" width="4.5" height="4.5" stroke="black" stroke-width="0.5"/>
<rect x="0.25" y="50.25" width="4.5" height="4.5" stroke="black" stroke-width="0.5"/>
<rect x="5.25" y="50.25" width="4.5" height="4.5" stroke="black" stroke-width="0.5"/>
<rect x="0.25" y="45.25" width="4.5" height="4.5" stroke="black" stroke-width="0.5"/>
<rect x="5.25" y="45.25" width="4.5" height="4.5" stroke="black" stroke-width="0.5"/>
<rect x="0.25" y="40.25" width="4.5" height="4.5" stroke="black" stroke-width="0.5"/>
<rect x="5.25" y="40.25" width="4.5" height="4.5" stroke="black" stroke-width="0.5"/>
<rect x="0.25" y="70.25" width="4.5" height="4.5" stroke="black" stroke-width="0.5"/>
<rect x="5.25" y="70.25" width="4.5" height="4.5" stroke="black" stroke-width="0.5"/>
<rect x="0.25" y="85.25" width="4.5" height="4.5" stroke="black" stroke-width="0.5"/>
<rect x="5.25" y="85.25" width="4.5" height="4.5" stroke="black" stroke-width="0.5"/>
<rect x="0.25" y="80.25" width="4.5" height="4.5" stroke="black" stroke-width="0.5"/>
<rect x="5.25" y="80.25" width="4.5" height="4.5" stroke="black" stroke-width="0.5"/>
<rect x="0.25" y="75.25" width="4.5" height="4.5" stroke="black" stroke-width="0.5"/>
<rect x="5.25" y="75.25" width="4.5" height="4.5" stroke="black" stroke-width="0.5"/>
<rect x="10.25" y="80.25" width="4.5" height="4.5" stroke="black" stroke-width="0.5"/>
<rect x="15.25" y="80.25" width="4.5" height="4.5" stroke="black" stroke-width="0.5"/>
<rect x="20.25" y="80.25" width="4.5" height="4.5" stroke="black" stroke-width="0.5"/>
<rect x="10.25" y="75.25" width="4.5" height="4.5" stroke="black" stroke-width="0.5"/>
<rect x="15.25" y="75.25" width="4.5" height="4.5" stroke="black" stroke-width="0.5"/>
<rect x="20.25" y="75.25" width="4.5" height="4.5" stroke="black" stroke-width="0.5"/>
<rect x="25.25" y="80.25" width="4.5" height="4.5" stroke="black" stroke-width="0.5"/>
<rect x="30.25" y="80.25" width="4.5" height="4.5" stroke="black" stroke-width="0.5"/>
<rect x="25.25" y="75.25" width="4.5" height="4.5" stroke="black" stroke-width="0.5"/>
<rect x="30.25" y="75.25" width="4.5" height="4.5" stroke="black" stroke-width="0.5"/>
<rect x="35.25" y="80.25" width="4.5" height="4.5" stroke="black" stroke-width="0.5"/>
<rect x="40.25" y="80.25" width="4.5" height="4.5" stroke="black" stroke-width="0.5"/>
<rect x="35.25" y="75.25" width="4.5" height="4.5" stroke="black" stroke-width="0.5"/>
<rect x="40.25" y="75.25" width="4.5" height="4.5" stroke="black" stroke-width="0.5"/>
<rect x="45.25" y="75.25" width="4.5" height="4.5" stroke="black" stroke-width="0.5"/>
</svg>
