<svg width="29" height="139" viewBox="0 0 29 139" fill="none" xmlns="http://www.w3.org/2000/svg">
<circle cx="9" cy="75" r="5.75" stroke="black" stroke-width="0.5"/>
<circle cx="9" cy="108" r="5.75" stroke="black" stroke-width="0.5"/>
<circle cx="9" cy="97" r="5.75" stroke="black" stroke-width="0.5"/>
<circle cx="9" cy="86" r="5.75" stroke="black" stroke-width="0.5"/>
<circle cx="9" cy="130" r="5.75" stroke="black" stroke-width="0.5"/>
<circle cx="9" cy="119" r="5.75" stroke="black" stroke-width="0.5"/>
<circle cx="20" cy="75" r="5.75" stroke="black" stroke-width="0.5"/>
<circle cx="20" cy="108" r="5.75" stroke="black" stroke-width="0.5"/>
<circle cx="20" cy="97" r="5.75" stroke="black" stroke-width="0.5"/>
<circle cx="14.5" cy="97" r="3" fill="#F63E26"/>
<circle cx="20" cy="103" r="3" fill="#F63E26"/>
<circle cx="26" cy="97" r="3" fill="#F63E26"/>
<circle cx="20" cy="86" r="5.75" stroke="black" stroke-width="0.5"/>
<circle cx="14.5" cy="86" r="3" fill="#F63E26"/>
<circle cx="20" cy="92" r="3" fill="#F63E26"/>
<circle cx="20" cy="130" r="5.75" stroke="black" stroke-width="0.5"/>
<circle cx="14.5" cy="130" r="3" fill="#F63E26"/>
<circle cx="20" cy="136" r="3" fill="#F63E26"/>
<circle cx="26" cy="130" r="3" fill="#F63E26"/>
<circle cx="20" cy="119" r="5.75" stroke="black" stroke-width="0.5"/>
<circle cx="14.5" cy="119" r="3" fill="#F63E26"/>
<circle cx="20" cy="125" r="3" fill="#F63E26"/>
<circle cx="26" cy="119" r="3" fill="#F63E26"/>
<circle cx="14.5" cy="108" r="3" fill="#F63E26"/>
<circle cx="20" cy="114" r="3" fill="#F63E26"/>
<circle cx="26" cy="108" r="3" fill="#F63E26"/>
<circle cx="26" cy="86" r="3" fill="#F63E26"/>
<circle cx="14.5" cy="75" r="3" fill="#F63E26"/>
<circle cx="20" cy="81" r="3" fill="#F63E26"/>
<circle cx="3" cy="97" r="3" fill="#F63E26"/>
<circle cx="9" cy="103" r="3" fill="#F63E26"/>
<circle cx="3" cy="86" r="3" fill="#F63E26"/>
<circle cx="9" cy="92" r="3" fill="#F63E26"/>
<circle cx="3" cy="130" r="3" fill="#F63E26"/>
<circle cx="9" cy="136" r="3" fill="#F63E26"/>
<circle cx="3" cy="119" r="3" fill="#F63E26"/>
<circle cx="9" cy="125" r="3" fill="#F63E26"/>
<circle cx="3" cy="108" r="3" fill="#F63E26"/>
<circle cx="9" cy="114" r="3" fill="#F63E26"/>
<circle cx="3" cy="75" r="3" fill="#F63E26"/>
<circle cx="9" cy="81" r="3" fill="#F63E26"/>
<circle cx="26" cy="75" r="3" fill="#F63E26"/>
<circle cx="9" cy="9" r="5.75" stroke="black" stroke-width="0.5"/>
<circle cx="9" cy="42" r="5.75" stroke="black" stroke-width="0.5"/>
<circle cx="9" cy="31" r="5.75" stroke="black" stroke-width="0.5"/>
<circle cx="9" cy="20" r="5.75" stroke="black" stroke-width="0.5"/>
<circle cx="9" cy="64" r="5.75" stroke="black" stroke-width="0.5"/>
<circle cx="9" cy="53" r="5.75" stroke="black" stroke-width="0.5"/>
<circle cx="20" cy="9" r="5.75" stroke="black" stroke-width="0.5"/>
<circle cx="20" cy="42" r="5.75" stroke="black" stroke-width="0.5"/>
<circle cx="20" cy="31" r="5.75" stroke="black" stroke-width="0.5"/>
<circle cx="14.5" cy="31" r="3" fill="#F63E26"/>
<circle cx="20" cy="37" r="3" fill="#F63E26"/>
<circle cx="26" cy="31" r="3" fill="#F63E26"/>
<circle cx="20" cy="3" r="3" fill="#F63E26"/>
<circle cx="20" cy="20" r="5.75" stroke="black" stroke-width="0.5"/>
<circle cx="14.5" cy="20" r="3" fill="#F63E26"/>
<circle cx="20" cy="26" r="3" fill="#F63E26"/>
<circle cx="20" cy="64" r="5.75" stroke="black" stroke-width="0.5"/>
<circle cx="14.5" cy="64" r="3" fill="#F63E26"/>
<circle cx="20" cy="69" r="3" fill="#F63E26"/>
<circle cx="26" cy="64" r="3" fill="#F63E26"/>
<circle cx="20" cy="53" r="5.75" stroke="black" stroke-width="0.5"/>
<circle cx="14.5" cy="53" r="3" fill="#F63E26"/>
<circle cx="20" cy="59" r="3" fill="#F63E26"/>
<circle cx="26" cy="53" r="3" fill="#F63E26"/>
<circle cx="14.5" cy="42" r="3" fill="#F63E26"/>
<circle cx="20" cy="48" r="3" fill="#F63E26"/>
<circle cx="26" cy="42" r="3" fill="#F63E26"/>
<circle cx="26" cy="20" r="3" fill="#F63E26"/>
<circle cx="14.5" cy="9" r="3" fill="#F63E26"/>
<circle cx="20" cy="15" r="3" fill="#F63E26"/>
<circle cx="3" cy="31" r="3" fill="#F63E26"/>
<circle cx="9" cy="37" r="3" fill="#F63E26"/>
<circle cx="9" cy="3" r="3" fill="#F63E26"/>
<circle cx="3" cy="20" r="3" fill="#F63E26"/>
<circle cx="9" cy="26" r="3" fill="#F63E26"/>
<circle cx="3" cy="64" r="3" fill="#F63E26"/>
<circle cx="9" cy="69" r="3" fill="#F63E26"/>
<circle cx="3" cy="53" r="3" fill="#F63E26"/>
<circle cx="9" cy="59" r="3" fill="#F63E26"/>
<circle cx="3" cy="42" r="3" fill="#F63E26"/>
<circle cx="9" cy="48" r="3" fill="#F63E26"/>
<circle cx="3" cy="9" r="3" fill="#F63E26"/>
<circle cx="9" cy="15" r="3" fill="#F63E26"/>
<circle cx="26" cy="9" r="3" fill="#F63E26"/>
</svg>
