<svg width="36" height="166" viewBox="0 0 36 166" fill="none" xmlns="http://www.w3.org/2000/svg">
<circle cx="28" cy="8" r="4.75" stroke="black" stroke-width="0.5"/>
<circle cx="28" cy="18" r="4.75" stroke="black" stroke-width="0.5"/>
<circle cx="28" cy="13" r="3" fill="#F63E26"/>
<circle cx="33" cy="8" r="3" fill="#F63E26"/>
<circle cx="28" cy="3" r="3" fill="#F63E26"/>
<circle cx="28" cy="23" r="3" fill="#F63E26"/>
<circle cx="33" cy="18" r="3" fill="#F63E26"/>
<circle cx="28" cy="13" r="3" fill="#F63E26"/>
<circle cx="33" cy="8" r="3" fill="#F63E26"/>
<circle cx="28" cy="3" r="3" fill="#F63E26"/>
<circle cx="28" cy="23" r="3" fill="#F63E26"/>
<circle cx="33" cy="18" r="3" fill="#F63E26"/>
<circle cx="28" cy="28" r="4.75" stroke="black" stroke-width="0.5"/>
<circle cx="28" cy="38" r="4.75" stroke="black" stroke-width="0.5"/>
<circle cx="28" cy="33" r="3" fill="#F63E26"/>
<circle cx="33" cy="28" r="3" fill="#F63E26"/>
<circle cx="28" cy="23" r="3" fill="#F63E26"/>
<circle cx="28" cy="43" r="3" fill="#F63E26"/>
<circle cx="33" cy="38" r="3" fill="#F63E26"/>
<circle cx="28" cy="33" r="3" fill="#F63E26"/>
<circle cx="33" cy="28" r="3" fill="#F63E26"/>
<circle cx="28" cy="43" r="3" fill="#F63E26"/>
<circle cx="33" cy="38" r="3" fill="#F63E26"/>
<circle cx="28" cy="48" r="4.75" stroke="black" stroke-width="0.5"/>
<circle cx="28" cy="58" r="4.75" stroke="black" stroke-width="0.5"/>
<circle cx="28" cy="53" r="3" fill="#F63E26"/>
<circle cx="33" cy="48" r="3" fill="#F63E26"/>
<circle cx="28" cy="43" r="3" fill="#F63E26"/>
<circle cx="28" cy="63" r="3" fill="#F63E26"/>
<circle cx="33" cy="58" r="3" fill="#F63E26"/>
<circle cx="28" cy="53" r="3" fill="#F63E26"/>
<circle cx="33" cy="48" r="3" fill="#F63E26"/>
<circle cx="28" cy="43" r="3" fill="#F63E26"/>
<circle cx="28" cy="63" r="3" fill="#F63E26"/>
<circle cx="33" cy="58" r="3" fill="#F63E26"/>
<circle cx="28" cy="68" r="4.75" stroke="black" stroke-width="0.5"/>
<circle cx="28" cy="78" r="4.75" stroke="black" stroke-width="0.5"/>
<circle cx="28" cy="73" r="3" fill="#F63E26"/>
<circle cx="33" cy="68" r="3" fill="#F63E26"/>
<circle cx="28" cy="63" r="3" fill="#F63E26"/>
<circle cx="28" cy="83" r="3" fill="#F63E26"/>
<circle cx="33" cy="78" r="3" fill="#F63E26"/>
<circle cx="28" cy="73" r="3" fill="#F63E26"/>
<circle cx="33" cy="68" r="3" fill="#F63E26"/>
<circle cx="28" cy="83" r="3" fill="#F63E26"/>
<circle cx="33" cy="78" r="3" fill="#F63E26"/>
<circle cx="28" cy="88" r="4.75" stroke="black" stroke-width="0.5"/>
<circle cx="28" cy="98" r="4.75" stroke="black" stroke-width="0.5"/>
<circle cx="28" cy="93" r="3" fill="#F63E26"/>
<circle cx="33" cy="88" r="3" fill="#F63E26"/>
<circle cx="28" cy="83" r="3" fill="#F63E26"/>
<circle cx="28" cy="103" r="3" fill="#F63E26"/>
<circle cx="33" cy="98" r="3" fill="#F63E26"/>
<circle cx="28" cy="93" r="3" fill="#F63E26"/>
<circle cx="33" cy="88" r="3" fill="#F63E26"/>
<circle cx="28" cy="103" r="3" fill="#F63E26"/>
<circle cx="33" cy="98" r="3" fill="#F63E26"/>
<circle cx="28" cy="108" r="4.75" stroke="black" stroke-width="0.5"/>
<circle cx="28" cy="118" r="4.75" stroke="black" stroke-width="0.5"/>
<circle cx="28" cy="113" r="3" fill="#F63E26"/>
<circle cx="33" cy="108" r="3" fill="#F63E26"/>
<circle cx="28" cy="103" r="3" fill="#F63E26"/>
<circle cx="28" cy="123" r="3" fill="#F63E26"/>
<circle cx="33" cy="118" r="3" fill="#F63E26"/>
<circle cx="28" cy="113" r="3" fill="#F63E26"/>
<circle cx="33" cy="108" r="3" fill="#F63E26"/>
<circle cx="28" cy="123" r="3" fill="#F63E26"/>
<circle cx="33" cy="118" r="3" fill="#F63E26"/>
<circle cx="28" cy="128" r="4.75" stroke="black" stroke-width="0.5"/>
<circle cx="28" cy="138" r="4.75" stroke="black" stroke-width="0.5"/>
<circle cx="28" cy="133" r="3" fill="#F63E26"/>
<circle cx="33" cy="128" r="3" fill="#F63E26"/>
<circle cx="28" cy="123" r="3" fill="#F63E26"/>
<circle cx="28" cy="143" r="3" fill="#F63E26"/>
<circle cx="33" cy="138" r="3" fill="#F63E26"/>
<circle cx="28" cy="133" r="3" fill="#F63E26"/>
<circle cx="33" cy="128" r="3" fill="#F63E26"/>
<circle cx="28" cy="123" r="3" fill="#F63E26"/>
<circle cx="28" cy="143" r="3" fill="#F63E26"/>
<circle cx="33" cy="138" r="3" fill="#F63E26"/>
<circle cx="28" cy="148" r="4.75" stroke="black" stroke-width="0.5"/>
<circle cx="28" cy="158" r="4.75" stroke="black" stroke-width="0.5"/>
<circle cx="28" cy="153" r="3" fill="#F63E26"/>
<circle cx="33" cy="148" r="3" fill="#F63E26"/>
<circle cx="28" cy="143" r="3" fill="#F63E26"/>
<circle cx="28" cy="163" r="3" fill="#F63E26"/>
<circle cx="33" cy="158" r="3" fill="#F63E26"/>
<circle cx="28" cy="153" r="3" fill="#F63E26"/>
<circle cx="33" cy="148" r="3" fill="#F63E26"/>
<circle cx="28" cy="163" r="3" fill="#F63E26"/>
<circle cx="33" cy="158" r="3" fill="#F63E26"/>
<circle cx="8" cy="8" r="4.75" stroke="black" stroke-width="0.5"/>
<circle cx="8" cy="18" r="4.75" stroke="black" stroke-width="0.5"/>
<circle cx="3" cy="8" r="3" fill="#F63E26"/>
<circle cx="8" cy="13" r="3" fill="#F63E26"/>
<circle cx="13" cy="8" r="3" fill="#F63E26"/>
<circle cx="8" cy="3" r="3" fill="#F63E26"/>
<circle cx="3" cy="18" r="3" fill="#F63E26"/>
<circle cx="8" cy="23" r="3" fill="#F63E26"/>
<circle cx="13" cy="18" r="3" fill="#F63E26"/>
<circle cx="3" cy="8" r="3" fill="#F63E26"/>
<circle cx="8" cy="13" r="3" fill="#F63E26"/>
<circle cx="13" cy="8" r="3" fill="#F63E26"/>
<circle cx="8" cy="3" r="3" fill="#F63E26"/>
<circle cx="3" cy="18" r="3" fill="#F63E26"/>
<circle cx="8" cy="23" r="3" fill="#F63E26"/>
<circle cx="13" cy="18" r="3" fill="#F63E26"/>
<circle cx="8" cy="28" r="4.75" stroke="black" stroke-width="0.5"/>
<circle cx="8" cy="38" r="4.75" stroke="black" stroke-width="0.5"/>
<circle cx="3" cy="28" r="3" fill="#F63E26"/>
<circle cx="8" cy="33" r="3" fill="#F63E26"/>
<circle cx="13" cy="28" r="3" fill="#F63E26"/>
<circle cx="8" cy="23" r="3" fill="#F63E26"/>
<circle cx="3" cy="38" r="3" fill="#F63E26"/>
<circle cx="8" cy="43" r="3" fill="#F63E26"/>
<circle cx="13" cy="38" r="3" fill="#F63E26"/>
<circle cx="3" cy="28" r="3" fill="#F63E26"/>
<circle cx="8" cy="33" r="3" fill="#F63E26"/>
<circle cx="13" cy="28" r="3" fill="#F63E26"/>
<circle cx="3" cy="38" r="3" fill="#F63E26"/>
<circle cx="8" cy="43" r="3" fill="#F63E26"/>
<circle cx="13" cy="38" r="3" fill="#F63E26"/>
<circle cx="8" cy="48" r="4.75" stroke="black" stroke-width="0.5"/>
<circle cx="8" cy="58" r="4.75" stroke="black" stroke-width="0.5"/>
<circle cx="3" cy="48" r="3" fill="#F63E26"/>
<circle cx="8" cy="53" r="3" fill="#F63E26"/>
<circle cx="13" cy="48" r="3" fill="#F63E26"/>
<circle cx="8" cy="43" r="3" fill="#F63E26"/>
<circle cx="3" cy="58" r="3" fill="#F63E26"/>
<circle cx="8" cy="63" r="3" fill="#F63E26"/>
<circle cx="13" cy="58" r="3" fill="#F63E26"/>
<circle cx="3" cy="48" r="3" fill="#F63E26"/>
<circle cx="8" cy="53" r="3" fill="#F63E26"/>
<circle cx="13" cy="48" r="3" fill="#F63E26"/>
<circle cx="8" cy="43" r="3" fill="#F63E26"/>
<circle cx="3" cy="58" r="3" fill="#F63E26"/>
<circle cx="8" cy="63" r="3" fill="#F63E26"/>
<circle cx="13" cy="58" r="3" fill="#F63E26"/>
<circle cx="8" cy="68" r="4.75" stroke="black" stroke-width="0.5"/>
<circle cx="8" cy="78" r="4.75" stroke="black" stroke-width="0.5"/>
<circle cx="3" cy="68" r="3" fill="#F63E26"/>
<circle cx="8" cy="73" r="3" fill="#F63E26"/>
<circle cx="13" cy="68" r="3" fill="#F63E26"/>
<circle cx="8" cy="63" r="3" fill="#F63E26"/>
<circle cx="3" cy="78" r="3" fill="#F63E26"/>
<circle cx="8" cy="83" r="3" fill="#F63E26"/>
<circle cx="13" cy="78" r="3" fill="#F63E26"/>
<circle cx="3" cy="68" r="3" fill="#F63E26"/>
<circle cx="8" cy="73" r="3" fill="#F63E26"/>
<circle cx="13" cy="68" r="3" fill="#F63E26"/>
<circle cx="3" cy="78" r="3" fill="#F63E26"/>
<circle cx="8" cy="83" r="3" fill="#F63E26"/>
<circle cx="13" cy="78" r="3" fill="#F63E26"/>
<circle cx="8" cy="88" r="4.75" stroke="black" stroke-width="0.5"/>
<circle cx="8" cy="98" r="4.75" stroke="black" stroke-width="0.5"/>
<circle cx="3" cy="88" r="3" fill="#F63E26"/>
<circle cx="8" cy="93" r="3" fill="#F63E26"/>
<circle cx="13" cy="88" r="3" fill="#F63E26"/>
<circle cx="8" cy="83" r="3" fill="#F63E26"/>
<circle cx="3" cy="98" r="3" fill="#F63E26"/>
<circle cx="8" cy="103" r="3" fill="#F63E26"/>
<circle cx="13" cy="98" r="3" fill="#F63E26"/>
<circle cx="3" cy="88" r="3" fill="#F63E26"/>
<circle cx="8" cy="93" r="3" fill="#F63E26"/>
<circle cx="13" cy="88" r="3" fill="#F63E26"/>
<circle cx="3" cy="98" r="3" fill="#F63E26"/>
<circle cx="8" cy="103" r="3" fill="#F63E26"/>
<circle cx="13" cy="98" r="3" fill="#F63E26"/>
<circle cx="8" cy="108" r="4.75" stroke="black" stroke-width="0.5"/>
<circle cx="8" cy="118" r="4.75" stroke="black" stroke-width="0.5"/>
<circle cx="3" cy="108" r="3" fill="#F63E26"/>
<circle cx="8" cy="113" r="3" fill="#F63E26"/>
<circle cx="13" cy="108" r="3" fill="#F63E26"/>
<circle cx="8" cy="103" r="3" fill="#F63E26"/>
<circle cx="3" cy="118" r="3" fill="#F63E26"/>
<circle cx="8" cy="123" r="3" fill="#F63E26"/>
<circle cx="13" cy="118" r="3" fill="#F63E26"/>
<circle cx="3" cy="108" r="3" fill="#F63E26"/>
<circle cx="8" cy="113" r="3" fill="#F63E26"/>
<circle cx="13" cy="108" r="3" fill="#F63E26"/>
<circle cx="3" cy="118" r="3" fill="#F63E26"/>
<circle cx="8" cy="123" r="3" fill="#F63E26"/>
<circle cx="13" cy="118" r="3" fill="#F63E26"/>
<circle cx="8" cy="128" r="4.75" stroke="black" stroke-width="0.5"/>
<circle cx="8" cy="138" r="4.75" stroke="black" stroke-width="0.5"/>
<circle cx="3" cy="128" r="3" fill="#F63E26"/>
<circle cx="8" cy="133" r="3" fill="#F63E26"/>
<circle cx="13" cy="128" r="3" fill="#F63E26"/>
<circle cx="8" cy="123" r="3" fill="#F63E26"/>
<circle cx="3" cy="138" r="3" fill="#F63E26"/>
<circle cx="8" cy="143" r="3" fill="#F63E26"/>
<circle cx="13" cy="138" r="3" fill="#F63E26"/>
<circle cx="3" cy="128" r="3" fill="#F63E26"/>
<circle cx="8" cy="133" r="3" fill="#F63E26"/>
<circle cx="13" cy="128" r="3" fill="#F63E26"/>
<circle cx="8" cy="123" r="3" fill="#F63E26"/>
<circle cx="3" cy="138" r="3" fill="#F63E26"/>
<circle cx="8" cy="143" r="3" fill="#F63E26"/>
<circle cx="13" cy="138" r="3" fill="#F63E26"/>
<circle cx="8" cy="148" r="4.75" stroke="black" stroke-width="0.5"/>
<circle cx="8" cy="158" r="4.75" stroke="black" stroke-width="0.5"/>
<circle cx="3" cy="148" r="3" fill="#F63E26"/>
<circle cx="8" cy="153" r="3" fill="#F63E26"/>
<circle cx="13" cy="148" r="3" fill="#F63E26"/>
<circle cx="8" cy="143" r="3" fill="#F63E26"/>
<circle cx="3" cy="158" r="3" fill="#F63E26"/>
<circle cx="8" cy="163" r="3" fill="#F63E26"/>
<circle cx="13" cy="158" r="3" fill="#F63E26"/>
<circle cx="3" cy="148" r="3" fill="#F63E26"/>
<circle cx="8" cy="153" r="3" fill="#F63E26"/>
<circle cx="13" cy="148" r="3" fill="#F63E26"/>
<circle cx="3" cy="158" r="3" fill="#F63E26"/>
<circle cx="8" cy="163" r="3" fill="#F63E26"/>
<circle cx="13" cy="158" r="3" fill="#F63E26"/>
<circle cx="18" cy="8" r="4.75" stroke="black" stroke-width="0.5"/>
<circle cx="18" cy="18" r="4.75" stroke="black" stroke-width="0.5"/>
<circle cx="13" cy="8" r="3" fill="#F63E26"/>
<circle cx="18" cy="13" r="3" fill="#F63E26"/>
<circle cx="23" cy="8" r="3" fill="#F63E26"/>
<circle cx="18" cy="3" r="3" fill="#F63E26"/>
<circle cx="13" cy="18" r="3" fill="#F63E26"/>
<circle cx="18" cy="23" r="3" fill="#F63E26"/>
<circle cx="23" cy="18" r="3" fill="#F63E26"/>
<circle cx="18" cy="13" r="3" fill="#F63E26"/>
<circle cx="23" cy="8" r="3" fill="#F63E26"/>
<circle cx="18" cy="3" r="3" fill="#F63E26"/>
<circle cx="18" cy="23" r="3" fill="#F63E26"/>
<circle cx="23" cy="18" r="3" fill="#F63E26"/>
<circle cx="18" cy="28" r="4.75" stroke="black" stroke-width="0.5"/>
<circle cx="18" cy="38" r="4.75" stroke="black" stroke-width="0.5"/>
<circle cx="13" cy="28" r="3" fill="#F63E26"/>
<circle cx="18" cy="33" r="3" fill="#F63E26"/>
<circle cx="23" cy="28" r="3" fill="#F63E26"/>
<circle cx="18" cy="23" r="3" fill="#F63E26"/>
<circle cx="13" cy="38" r="3" fill="#F63E26"/>
<circle cx="18" cy="43" r="3" fill="#F63E26"/>
<circle cx="23" cy="38" r="3" fill="#F63E26"/>
<circle cx="18" cy="33" r="3" fill="#F63E26"/>
<circle cx="23" cy="28" r="3" fill="#F63E26"/>
<circle cx="18" cy="43" r="3" fill="#F63E26"/>
<circle cx="23" cy="38" r="3" fill="#F63E26"/>
<circle cx="18" cy="48" r="4.75" stroke="black" stroke-width="0.5"/>
<circle cx="18" cy="58" r="4.75" stroke="black" stroke-width="0.5"/>
<circle cx="13" cy="48" r="3" fill="#F63E26"/>
<circle cx="18" cy="53" r="3" fill="#F63E26"/>
<circle cx="23" cy="48" r="3" fill="#F63E26"/>
<circle cx="18" cy="43" r="3" fill="#F63E26"/>
<circle cx="13" cy="58" r="3" fill="#F63E26"/>
<circle cx="18" cy="63" r="3" fill="#F63E26"/>
<circle cx="23" cy="58" r="3" fill="#F63E26"/>
<circle cx="18" cy="53" r="3" fill="#F63E26"/>
<circle cx="23" cy="48" r="3" fill="#F63E26"/>
<circle cx="18" cy="43" r="3" fill="#F63E26"/>
<circle cx="18" cy="63" r="3" fill="#F63E26"/>
<circle cx="23" cy="58" r="3" fill="#F63E26"/>
<circle cx="18" cy="68" r="4.75" stroke="black" stroke-width="0.5"/>
<circle cx="18" cy="78" r="4.75" stroke="black" stroke-width="0.5"/>
<circle cx="13" cy="68" r="3" fill="#F63E26"/>
<circle cx="18" cy="73" r="3" fill="#F63E26"/>
<circle cx="23" cy="68" r="3" fill="#F63E26"/>
<circle cx="18" cy="63" r="3" fill="#F63E26"/>
<circle cx="13" cy="78" r="3" fill="#F63E26"/>
<circle cx="18" cy="83" r="3" fill="#F63E26"/>
<circle cx="23" cy="78" r="3" fill="#F63E26"/>
<circle cx="18" cy="73" r="3" fill="#F63E26"/>
<circle cx="23" cy="68" r="3" fill="#F63E26"/>
<circle cx="18" cy="83" r="3" fill="#F63E26"/>
<circle cx="23" cy="78" r="3" fill="#F63E26"/>
<circle cx="18" cy="88" r="4.75" stroke="black" stroke-width="0.5"/>
<circle cx="18" cy="98" r="4.75" stroke="black" stroke-width="0.5"/>
<circle cx="13" cy="88" r="3" fill="#F63E26"/>
<circle cx="18" cy="93" r="3" fill="#F63E26"/>
<circle cx="23" cy="88" r="3" fill="#F63E26"/>
<circle cx="18" cy="83" r="3" fill="#F63E26"/>
<circle cx="13" cy="98" r="3" fill="#F63E26"/>
<circle cx="18" cy="103" r="3" fill="#F63E26"/>
<circle cx="23" cy="98" r="3" fill="#F63E26"/>
<circle cx="18" cy="93" r="3" fill="#F63E26"/>
<circle cx="23" cy="88" r="3" fill="#F63E26"/>
<circle cx="18" cy="103" r="3" fill="#F63E26"/>
<circle cx="23" cy="98" r="3" fill="#F63E26"/>
<circle cx="18" cy="108" r="4.75" stroke="black" stroke-width="0.5"/>
<circle cx="18" cy="118" r="4.75" stroke="black" stroke-width="0.5"/>
<circle cx="13" cy="108" r="3" fill="#F63E26"/>
<circle cx="18" cy="113" r="3" fill="#F63E26"/>
<circle cx="23" cy="108" r="3" fill="#F63E26"/>
<circle cx="18" cy="103" r="3" fill="#F63E26"/>
<circle cx="13" cy="118" r="3" fill="#F63E26"/>
<circle cx="18" cy="123" r="3" fill="#F63E26"/>
<circle cx="23" cy="118" r="3" fill="#F63E26"/>
<circle cx="18" cy="113" r="3" fill="#F63E26"/>
<circle cx="23" cy="108" r="3" fill="#F63E26"/>
<circle cx="18" cy="123" r="3" fill="#F63E26"/>
<circle cx="23" cy="118" r="3" fill="#F63E26"/>
<circle cx="18" cy="128" r="4.75" stroke="black" stroke-width="0.5"/>
<circle cx="18" cy="138" r="4.75" stroke="black" stroke-width="0.5"/>
<circle cx="13" cy="128" r="3" fill="#F63E26"/>
<circle cx="18" cy="133" r="3" fill="#F63E26"/>
<circle cx="23" cy="128" r="3" fill="#F63E26"/>
<circle cx="18" cy="123" r="3" fill="#F63E26"/>
<circle cx="13" cy="138" r="3" fill="#F63E26"/>
<circle cx="18" cy="143" r="3" fill="#F63E26"/>
<circle cx="23" cy="138" r="3" fill="#F63E26"/>
<circle cx="18" cy="133" r="3" fill="#F63E26"/>
<circle cx="23" cy="128" r="3" fill="#F63E26"/>
<circle cx="18" cy="123" r="3" fill="#F63E26"/>
<circle cx="18" cy="143" r="3" fill="#F63E26"/>
<circle cx="23" cy="138" r="3" fill="#F63E26"/>
<circle cx="18" cy="148" r="4.75" stroke="black" stroke-width="0.5"/>
<circle cx="18" cy="158" r="4.75" stroke="black" stroke-width="0.5"/>
<circle cx="13" cy="148" r="3" fill="#F63E26"/>
<circle cx="18" cy="153" r="3" fill="#F63E26"/>
<circle cx="23" cy="148" r="3" fill="#F63E26"/>
<circle cx="18" cy="143" r="3" fill="#F63E26"/>
<circle cx="13" cy="158" r="3" fill="#F63E26"/>
<circle cx="18" cy="163" r="3" fill="#F63E26"/>
<circle cx="23" cy="158" r="3" fill="#F63E26"/>
<circle cx="18" cy="153" r="3" fill="#F63E26"/>
<circle cx="23" cy="148" r="3" fill="#F63E26"/>
<circle cx="18" cy="163" r="3" fill="#F63E26"/>
<circle cx="23" cy="158" r="3" fill="#F63E26"/>
<circle cx="23" cy="8" r="3" fill="#F63E26"/>
<circle cx="23" cy="18" r="3" fill="#F63E26"/>
<circle cx="23" cy="8" r="3" fill="#F63E26"/>
<circle cx="23" cy="18" r="3" fill="#F63E26"/>
<circle cx="23" cy="28" r="3" fill="#F63E26"/>
<circle cx="23" cy="38" r="3" fill="#F63E26"/>
<circle cx="23" cy="28" r="3" fill="#F63E26"/>
<circle cx="23" cy="38" r="3" fill="#F63E26"/>
<circle cx="23" cy="48" r="3" fill="#F63E26"/>
<circle cx="23" cy="58" r="3" fill="#F63E26"/>
<circle cx="23" cy="48" r="3" fill="#F63E26"/>
<circle cx="23" cy="58" r="3" fill="#F63E26"/>
<circle cx="23" cy="68" r="3" fill="#F63E26"/>
<circle cx="23" cy="78" r="3" fill="#F63E26"/>
<circle cx="23" cy="68" r="3" fill="#F63E26"/>
<circle cx="23" cy="78" r="3" fill="#F63E26"/>
<circle cx="23" cy="88" r="3" fill="#F63E26"/>
<circle cx="23" cy="98" r="3" fill="#F63E26"/>
<circle cx="23" cy="88" r="3" fill="#F63E26"/>
<circle cx="23" cy="98" r="3" fill="#F63E26"/>
<circle cx="23" cy="108" r="3" fill="#F63E26"/>
<circle cx="23" cy="118" r="3" fill="#F63E26"/>
<circle cx="23" cy="108" r="3" fill="#F63E26"/>
<circle cx="23" cy="118" r="3" fill="#F63E26"/>
<circle cx="23" cy="128" r="3" fill="#F63E26"/>
<circle cx="23" cy="138" r="3" fill="#F63E26"/>
<circle cx="23" cy="128" r="3" fill="#F63E26"/>
<circle cx="23" cy="138" r="3" fill="#F63E26"/>
<circle cx="23" cy="148" r="3" fill="#F63E26"/>
<circle cx="23" cy="158" r="3" fill="#F63E26"/>
<circle cx="23" cy="148" r="3" fill="#F63E26"/>
<circle cx="23" cy="158" r="3" fill="#F63E26"/>
</svg>
