<svg width="110" height="110" viewBox="0 0 110 110" fill="none" xmlns="http://www.w3.org/2000/svg">
<rect x="1.5" y="1.5" width="19" height="19" fill="white" stroke="black" stroke-width="3"/>
<rect x="23.5" y="1.5" width="19" height="19" fill="white" stroke="black" stroke-width="3"/>
<rect x="45.5" y="1.5" width="19" height="19" fill="white" stroke="black" stroke-width="3"/>
<rect x="67.5" y="1.5" width="19" height="19" fill="white" stroke="black" stroke-width="3"/>
<rect x="89.5" y="1.5" width="19" height="19" fill="white" stroke="black" stroke-width="3"/>
<rect x="1.5" y="23.5" width="19" height="19" fill="white" stroke="black" stroke-width="3"/>
<rect x="23.5" y="23.5" width="19" height="19" fill="white" stroke="black" stroke-width="3"/>
<rect x="45.5" y="23.5" width="19" height="19" fill="white" stroke="black" stroke-width="3"/>
<rect x="67.5" y="23.5" width="19" height="19" fill="white" stroke="black" stroke-width="3"/>
<rect x="89.5" y="23.5" width="19" height="19" fill="white" stroke="black" stroke-width="3"/>
<rect x="1.5" y="45.5" width="19" height="19" fill="white" stroke="black" stroke-width="3"/>
<rect x="23.5" y="45.5" width="19" height="19" fill="white" stroke="black" stroke-width="3"/>
<rect x="45.5" y="45.5" width="19" height="19" fill="white" stroke="black" stroke-width="3"/>
<rect x="67.5" y="45.5" width="19" height="19" fill="white" stroke="black" stroke-width="3"/>
<rect x="89.5" y="45.5" width="19" height="19" fill="white" stroke="black" stroke-width="3"/>
<rect x="1.5" y="1.5" width="19" height="19" fill="white" stroke="black" stroke-width="3"/>
<rect x="1.5" y="89.5" width="19" height="19" fill="white" stroke="black" stroke-width="3"/>
<rect x="23.5" y="89.5" width="19" height="19" fill="white" stroke="black" stroke-width="3"/>
<rect x="45.5" y="89.5" width="19" height="19" fill="white" stroke="black" stroke-width="3"/>
<rect x="67.5" y="89.5" width="19" height="19" fill="white" stroke="black" stroke-width="3"/>
<rect x="89.5" y="89.5" width="19" height="19" fill="white" stroke="black" stroke-width="3"/>
<rect x="1.5" y="89.5" width="19" height="19" fill="white" stroke="black" stroke-width="3"/>
<rect x="1.5" y="67.5" width="19" height="19" fill="white" stroke="black" stroke-width="3"/>
<rect x="23.5" y="67.5" width="19" height="19" fill="white" stroke="black" stroke-width="3"/>
<rect x="45.5" y="67.5" width="19" height="19" fill="white" stroke="black" stroke-width="3"/>
<rect x="67.5" y="67.5" width="19" height="19" fill="white" stroke="black" stroke-width="3"/>
<rect x="89.5" y="67.5" width="19" height="19" fill="white" stroke="black" stroke-width="3"/>
<rect x="1.5" y="67.5" width="19" height="19" fill="white" stroke="black" stroke-width="3"/>
</svg>
